<?xml version="1.0" encoding="UTF-8" standalone="no"?><svg xmlns="http://www.w3.org/2000/svg" xmlns:xlink="http://www.w3.org/1999/xlink" contentScriptType="application/ecmascript" contentStyleType="text/css" height="677px" preserveAspectRatio="none" style="width:856px;height:677px;" version="1.1" viewBox="0 0 856 677" width="856px" zoomAndPan="magnify"><defs><filter height="300%" id="fh3gvbpq4cy6o" width="300%" x="-1" y="-1"><feGaussianBlur result="blurOut" stdDeviation="2.0"/><feColorMatrix in="blurOut" result="blurOut2" type="matrix" values="0 0 0 0 0 0 0 0 0 0 0 0 0 0 0 0 0 0 .4 0"/><feOffset dx="4.0" dy="4.0" in="blurOut2" result="blurOut3"/><feBlend in="SourceGraphic" in2="blurOut3" mode="normal"/></filter></defs><g><!--MD5=[c86ce95fe6226f2d2796c0513d8e83fe]
class Engine--><rect fill="#FEFECE" filter="url(#fh3gvbpq4cy6o)" height="201.6563" id="Engine" style="stroke: #A80036; stroke-width: 1.5;" width="165" x="280.5" y="177.5"/><ellipse cx="337.25" cy="193.5" fill="#ADD1B2" rx="11" ry="11" style="stroke: #A80036; stroke-width: 1.0;"/><path d="M340.2188,199.1406 Q339.6406,199.4375 339,199.5781 Q338.3594,199.7344 337.6563,199.7344 Q335.1563,199.7344 333.8281,198.0938 Q332.5156,196.4375 332.5156,193.3125 Q332.5156,190.1875 333.8281,188.5313 Q335.1563,186.875 337.6563,186.875 Q338.3594,186.875 339,187.0313 Q339.6563,187.1875 340.2188,187.4844 L340.2188,190.2031 Q339.5938,189.625 339,189.3594 Q338.4063,189.0781 337.7813,189.0781 Q336.4375,189.0781 335.75,190.1563 Q335.0625,191.2188 335.0625,193.3125 Q335.0625,195.4063 335.75,196.4844 Q336.4375,197.5469 337.7813,197.5469 Q338.4063,197.5469 339,197.2813 Q339.5938,197 340.2188,196.4219 L340.2188,199.1406 Z "/><text fill="#000000" font-family="sans-serif" font-size="12" lengthAdjust="spacingAndGlyphs" textLength="43" x="357.75" y="197.6543">Engine</text><line style="stroke: #A80036; stroke-width: 1.5;" x1="281.5" x2="444.5" y1="209.5" y2="209.5"/><text fill="#000000" font-family="sans-serif" font-size="11" lengthAdjust="spacingAndGlyphs" textLength="42" x="286.5" y="223.7104">entities</text><text fill="#000000" font-family="sans-serif" font-size="11" lengthAdjust="spacingAndGlyphs" textLength="49" x="286.5" y="236.5151">systems</text><text fill="#000000" font-family="sans-serif" font-size="11" lengthAdjust="spacingAndGlyphs" textLength="98" x="286.5" y="249.3198">systemVsEntities</text><line style="stroke: #A80036; stroke-width: 1.5;" x1="281.5" x2="444.5" y1="255.9141" y2="255.9141"/><text fill="#000000" font-family="sans-serif" font-size="11" lengthAdjust="spacingAndGlyphs" textLength="73" x="286.5" y="270.1245">constructor()</text><text fill="#000000" font-family="sans-serif" font-size="11" lengthAdjust="spacingAndGlyphs" textLength="39" x="286.5" y="282.9292">entity()</text><text fill="#000000" font-family="sans-serif" font-size="11" lengthAdjust="spacingAndGlyphs" textLength="57" x="286.5" y="295.7339">getEntity()</text><text fill="#000000" font-family="sans-serif" font-size="11" lengthAdjust="spacingAndGlyphs" textLength="82" x="286.5" y="308.5386">removeEntity()</text><text fill="#000000" font-family="sans-serif" font-size="11" lengthAdjust="spacingAndGlyphs" textLength="50" x="286.5" y="321.3433">system()</text><text fill="#000000" font-family="sans-serif" font-size="11" lengthAdjust="spacingAndGlyphs" textLength="69" x="286.5" y="334.1479">getSystem()</text><text fill="#000000" font-family="sans-serif" font-size="11" lengthAdjust="spacingAndGlyphs" textLength="94" x="286.5" y="346.9526">removeSystem()</text><text fill="#000000" font-family="sans-serif" font-size="11" lengthAdjust="spacingAndGlyphs" textLength="153" x="286.5" y="359.7573">updateSystemsVsEntities()</text><text fill="#000000" font-family="sans-serif" font-size="11" lengthAdjust="spacingAndGlyphs" textLength="27" x="286.5" y="372.562">tick()</text><!--MD5=[f00238d7d3b345818710a28959a0e6a6]
class EventEmitter--><rect fill="#FEFECE" filter="url(#fh3gvbpq4cy6o)" height="48" id="EventEmitter" style="stroke: #A80036; stroke-width: 1.5;" width="112" x="133" y="254.5"/><ellipse cx="148" cy="270.5" fill="#ADD1B2" rx="11" ry="11" style="stroke: #A80036; stroke-width: 1.0;"/><path d="M150.9688,276.1406 Q150.3906,276.4375 149.75,276.5781 Q149.1094,276.7344 148.4063,276.7344 Q145.9063,276.7344 144.5781,275.0938 Q143.2656,273.4375 143.2656,270.3125 Q143.2656,267.1875 144.5781,265.5313 Q145.9063,263.875 148.4063,263.875 Q149.1094,263.875 149.75,264.0313 Q150.4063,264.1875 150.9688,264.4844 L150.9688,267.2031 Q150.3438,266.625 149.75,266.3594 Q149.1563,266.0781 148.5313,266.0781 Q147.1875,266.0781 146.5,267.1563 Q145.8125,268.2188 145.8125,270.3125 Q145.8125,272.4063 146.5,273.4844 Q147.1875,274.5469 148.5313,274.5469 Q149.1563,274.5469 149.75,274.2813 Q150.3438,274 150.9688,273.4219 L150.9688,276.1406 Z "/><text fill="#000000" font-family="sans-serif" font-size="12" lengthAdjust="spacingAndGlyphs" textLength="80" x="162" y="274.6543">EventEmitter</text><line style="stroke: #A80036; stroke-width: 1.5;" x1="134" x2="244" y1="286.5" y2="286.5"/><line style="stroke: #A80036; stroke-width: 1.5;" x1="134" x2="244" y1="294.5" y2="294.5"/><!--MD5=[99f32fa4e73f6681c1a0ac5117bd3ce1]
class Array--><rect fill="#FEFECE" filter="url(#fh3gvbpq4cy6o)" height="48" id="Array" style="stroke: #A80036; stroke-width: 1.5;" width="64" x="400" y="539.5"/><ellipse cx="415" cy="555.5" fill="#ADD1B2" rx="11" ry="11" style="stroke: #A80036; stroke-width: 1.0;"/><path d="M417.9688,561.1406 Q417.3906,561.4375 416.75,561.5781 Q416.1094,561.7344 415.4063,561.7344 Q412.9063,561.7344 411.5781,560.0938 Q410.2656,558.4375 410.2656,555.3125 Q410.2656,552.1875 411.5781,550.5313 Q412.9063,548.875 415.4063,548.875 Q416.1094,548.875 416.75,549.0313 Q417.4063,549.1875 417.9688,549.4844 L417.9688,552.2031 Q417.3438,551.625 416.75,551.3594 Q416.1563,551.0781 415.5313,551.0781 Q414.1875,551.0781 413.5,552.1563 Q412.8125,553.2188 412.8125,555.3125 Q412.8125,557.4063 413.5,558.4844 Q414.1875,559.5469 415.5313,559.5469 Q416.1563,559.5469 416.75,559.2813 Q417.3438,559 417.9688,558.4219 L417.9688,561.1406 Z "/><text fill="#000000" font-family="sans-serif" font-size="12" lengthAdjust="spacingAndGlyphs" textLength="32" x="429" y="559.6543">Array</text><line style="stroke: #A80036; stroke-width: 1.5;" x1="401" x2="463" y1="571.5" y2="571.5"/><line style="stroke: #A80036; stroke-width: 1.5;" x1="401" x2="463" y1="579.5" y2="579.5"/><!--MD5=[be996cdb8e6bf2fc7cb89c555f2cd144]
class Entity--><rect fill="#FEFECE" filter="url(#fh3gvbpq4cy6o)" height="163.2422" id="Entity" style="stroke: #A80036; stroke-width: 1.5;" width="120" x="245" y="482"/><ellipse cx="283.85" cy="498" fill="#ADD1B2" rx="11" ry="11" style="stroke: #A80036; stroke-width: 1.0;"/><path d="M286.8188,503.6406 Q286.2406,503.9375 285.6,504.0781 Q284.9594,504.2344 284.2563,504.2344 Q281.7563,504.2344 280.4281,502.5938 Q279.1156,500.9375 279.1156,497.8125 Q279.1156,494.6875 280.4281,493.0313 Q281.7563,491.375 284.2563,491.375 Q284.9594,491.375 285.6,491.5313 Q286.2563,491.6875 286.8188,491.9844 L286.8188,494.7031 Q286.1938,494.125 285.6,493.8594 Q285.0063,493.5781 284.3813,493.5781 Q283.0375,493.5781 282.35,494.6563 Q281.6625,495.7188 281.6625,497.8125 Q281.6625,499.9063 282.35,500.9844 Q283.0375,502.0469 284.3813,502.0469 Q285.0063,502.0469 285.6,501.7813 Q286.1938,501.5 286.8188,500.9219 L286.8188,503.6406 Z "/><text fill="#000000" font-family="sans-serif" font-size="12" lengthAdjust="spacingAndGlyphs" textLength="35" x="303.15" y="502.1543">Entity</text><line style="stroke: #A80036; stroke-width: 1.5;" x1="246" x2="364" y1="514" y2="514"/><text fill="#000000" font-family="sans-serif" font-size="11" lengthAdjust="spacingAndGlyphs" textLength="32" x="251" y="528.2104">name</text><text fill="#000000" font-family="sans-serif" font-size="11" lengthAdjust="spacingAndGlyphs" textLength="70" x="251" y="541.0151">components</text><line style="stroke: #A80036; stroke-width: 1.5;" x1="246" x2="364" y1="547.6094" y2="547.6094"/><text fill="#000000" font-family="sans-serif" font-size="11" lengthAdjust="spacingAndGlyphs" textLength="73" x="251" y="561.8198">constructor()</text><text fill="#000000" font-family="sans-serif" font-size="11" lengthAdjust="spacingAndGlyphs" textLength="59" x="251" y="574.6245">getName()</text><text fill="#000000" font-family="sans-serif" font-size="11" lengthAdjust="spacingAndGlyphs" textLength="94" x="251" y="587.4292">hasComponent()</text><text fill="#000000" font-family="sans-serif" font-size="11" lengthAdjust="spacingAndGlyphs" textLength="91" x="251" y="600.2339">setComponent()</text><text fill="#000000" font-family="sans-serif" font-size="11" lengthAdjust="spacingAndGlyphs" textLength="91" x="251" y="613.0386">getComponent()</text><text fill="#000000" font-family="sans-serif" font-size="11" lengthAdjust="spacingAndGlyphs" textLength="108" x="251" y="625.8433">deleteComponent()</text><text fill="#000000" font-family="sans-serif" font-size="11" lengthAdjust="spacingAndGlyphs" textLength="51" x="251" y="638.6479">destroy()</text><!--MD5=[f8e092794d52bf9a252466252ae7bd1c]
class System--><rect fill="#FEFECE" filter="url(#fh3gvbpq4cy6o)" height="137.6328" id="System" style="stroke: #A80036; stroke-width: 1.5;" width="125" x="84.5" y="494.5"/><ellipse cx="121.1" cy="510.5" fill="#ADD1B2" rx="11" ry="11" style="stroke: #A80036; stroke-width: 1.0;"/><path d="M124.0688,516.1406 Q123.4906,516.4375 122.85,516.5781 Q122.2094,516.7344 121.5063,516.7344 Q119.0063,516.7344 117.6781,515.0938 Q116.3656,513.4375 116.3656,510.3125 Q116.3656,507.1875 117.6781,505.5313 Q119.0063,503.875 121.5063,503.875 Q122.2094,503.875 122.85,504.0313 Q123.5063,504.1875 124.0688,504.4844 L124.0688,507.2031 Q123.4438,506.625 122.85,506.3594 Q122.2563,506.0781 121.6313,506.0781 Q120.2875,506.0781 119.6,507.1563 Q118.9125,508.2188 118.9125,510.3125 Q118.9125,512.4063 119.6,513.4844 Q120.2875,514.5469 121.6313,514.5469 Q122.2563,514.5469 122.85,514.2813 Q123.4438,514 124.0688,513.4219 L124.0688,516.1406 Z "/><text fill="#000000" font-family="sans-serif" font-size="12" lengthAdjust="spacingAndGlyphs" textLength="45" x="139.9" y="514.6543">System</text><line style="stroke: #A80036; stroke-width: 1.5;" x1="85.5" x2="208.5" y1="526.5" y2="526.5"/><text fill="#000000" font-family="sans-serif" font-size="11" lengthAdjust="spacingAndGlyphs" textLength="32" x="90.5" y="540.7104">name</text><text fill="#000000" font-family="sans-serif" font-size="11" lengthAdjust="spacingAndGlyphs" textLength="70" x="90.5" y="553.5151">components</text><text fill="#000000" font-family="sans-serif" font-size="11" lengthAdjust="spacingAndGlyphs" textLength="43" x="90.5" y="566.3198">handler</text><line style="stroke: #A80036; stroke-width: 1.5;" x1="85.5" x2="208.5" y1="572.9141" y2="572.9141"/><text fill="#000000" font-family="sans-serif" font-size="11" lengthAdjust="spacingAndGlyphs" textLength="73" x="90.5" y="587.1245">constructor()</text><text fill="#000000" font-family="sans-serif" font-size="11" lengthAdjust="spacingAndGlyphs" textLength="113" x="90.5" y="599.9292">isCompatibleEntity()</text><text fill="#000000" font-family="sans-serif" font-size="11" lengthAdjust="spacingAndGlyphs" textLength="59" x="90.5" y="612.7339">getName()</text><text fill="#000000" font-family="sans-serif" font-size="11" lengthAdjust="spacingAndGlyphs" textLength="51" x="90.5" y="625.5386">destroy()</text><!--MD5=[a4c922bb2f2d7082dbe68a3a5cd845ba]
class engine_js--><rect fill="#8FBC8F" filter="url(#fh3gvbpq4cy6o)" height="53.9375" id="engine_js" style="stroke: #A80036; stroke-width: 1.5;" width="91" x="317.5" y="14.5"/><ellipse cx="332.5" cy="33.4688" fill="#DA70D6" rx="11" ry="11" style="stroke: #A80036; stroke-width: 1.0;"/><path d="M328.2188,27.0781 L331.1406,27.0781 L332.6094,32.5156 L334.0781,27.0781 L337.0156,27.0781 L337.0156,39.4688 L334.9063,39.4688 L334.9063,29.5469 L333.5938,34.9688 L331.6563,34.9688 L330.3281,29.5469 L330.3281,39.4688 L328.2188,39.4688 L328.2188,27.0781 Z "/><text fill="#000000" font-family="sans-serif" font-size="12" font-style="italic" lengthAdjust="spacingAndGlyphs" textLength="60" x="346" y="30.6387">«module»</text><text fill="#000000" font-family="sans-serif" font-size="12" lengthAdjust="spacingAndGlyphs" textLength="59" x="346.5" y="44.6074">engine_js</text><line style="stroke: #A80036; stroke-width: 1.5;" x1="318.5" x2="407.5" y1="52.4375" y2="52.4375"/><line style="stroke: #A80036; stroke-width: 1.0;" x1="318.5" x2="407.5" y1="60.4375" y2="60.4375"/><!--MD5=[5851ca90976b0ed3ef04d00bb7680bc8]
class entity_js--><rect fill="#8FBC8F" filter="url(#fh3gvbpq4cy6o)" height="53.9375" id="entity_js" style="stroke: #A80036; stroke-width: 1.5;" width="88" x="483" y="251.5"/><ellipse cx="498" cy="270.4688" fill="#DA70D6" rx="11" ry="11" style="stroke: #A80036; stroke-width: 1.0;"/><path d="M493.7188,264.0781 L496.6406,264.0781 L498.1094,269.5156 L499.5781,264.0781 L502.5156,264.0781 L502.5156,276.4688 L500.4063,276.4688 L500.4063,266.5469 L499.0938,271.9688 L497.1563,271.9688 L495.8281,266.5469 L495.8281,276.4688 L493.7188,276.4688 L493.7188,264.0781 Z "/><text fill="#000000" font-family="sans-serif" font-size="12" font-style="italic" lengthAdjust="spacingAndGlyphs" textLength="60" x="510" y="267.6387">«module»</text><text fill="#000000" font-family="sans-serif" font-size="12" lengthAdjust="spacingAndGlyphs" textLength="51" x="514.5" y="281.6074">entity_js</text><line style="stroke: #A80036; stroke-width: 1.5;" x1="484" x2="570" y1="289.4375" y2="289.4375"/><line style="stroke: #A80036; stroke-width: 1.0;" x1="484" x2="570" y1="297.4375" y2="297.4375"/><!--MD5=[65db19dbc8979cd6fe9b8f6606704d80]
class jecs_js--><rect fill="#8FBC8F" filter="url(#fh3gvbpq4cy6o)" height="53.9375" id="jecs_js" style="stroke: #A80036; stroke-width: 1.5;" width="88" x="464" y="14.5"/><ellipse cx="479" cy="33.4688" fill="#DA70D6" rx="11" ry="11" style="stroke: #A80036; stroke-width: 1.0;"/><path d="M474.7188,27.0781 L477.6406,27.0781 L479.1094,32.5156 L480.5781,27.0781 L483.5156,27.0781 L483.5156,39.4688 L481.4063,39.4688 L481.4063,29.5469 L480.0938,34.9688 L478.1563,34.9688 L476.8281,29.5469 L476.8281,39.4688 L474.7188,39.4688 L474.7188,27.0781 Z "/><text fill="#000000" font-family="sans-serif" font-size="12" font-style="italic" lengthAdjust="spacingAndGlyphs" textLength="60" x="491" y="30.6387">«module»</text><text fill="#000000" font-family="sans-serif" font-size="12" lengthAdjust="spacingAndGlyphs" textLength="41" x="500.5" y="44.6074">jecs_js</text><line style="stroke: #A80036; stroke-width: 1.5;" x1="465" x2="551" y1="52.4375" y2="52.4375"/><line style="stroke: #A80036; stroke-width: 1.0;" x1="465" x2="551" y1="60.4375" y2="60.4375"/><!--MD5=[e78d3bd29d68b8fbdb4aae8710e3db25]
class Simulator--><rect fill="#FEFECE" filter="url(#fh3gvbpq4cy6o)" height="252.875" id="Simulator" style="stroke: #A80036; stroke-width: 1.5;" width="101" x="606.5" y="152"/><ellipse cx="626" cy="168" fill="#ADD1B2" rx="11" ry="11" style="stroke: #A80036; stroke-width: 1.0;"/><path d="M628.9688,173.6406 Q628.3906,173.9375 627.75,174.0781 Q627.1094,174.2344 626.4063,174.2344 Q623.9063,174.2344 622.5781,172.5938 Q621.2656,170.9375 621.2656,167.8125 Q621.2656,164.6875 622.5781,163.0313 Q623.9063,161.375 626.4063,161.375 Q627.1094,161.375 627.75,161.5313 Q628.4063,161.6875 628.9688,161.9844 L628.9688,164.7031 Q628.3438,164.125 627.75,163.8594 Q627.1563,163.5781 626.5313,163.5781 Q625.1875,163.5781 624.5,164.6563 Q623.8125,165.7188 623.8125,167.8125 Q623.8125,169.9063 624.5,170.9844 Q625.1875,172.0469 626.5313,172.0469 Q627.1563,172.0469 627.75,171.7813 Q628.3438,171.5 628.9688,170.9219 L628.9688,173.6406 Z "/><text fill="#000000" font-family="sans-serif" font-size="12" lengthAdjust="spacingAndGlyphs" textLength="59" x="641" y="172.1543">Simulator</text><line style="stroke: #A80036; stroke-width: 1.5;" x1="607.5" x2="706.5" y1="184" y2="184"/><text fill="#000000" font-family="sans-serif" font-size="11" lengthAdjust="spacingAndGlyphs" textLength="38" x="612.5" y="198.2104">engine</text><text fill="#000000" font-family="sans-serif" font-size="11" lengthAdjust="spacingAndGlyphs" textLength="25" x="612.5" y="211.0151">time</text><text fill="#000000" font-family="sans-serif" font-size="11" lengthAdjust="spacingAndGlyphs" textLength="18" x="612.5" y="223.8198">fps</text><text fill="#000000" font-family="sans-serif" font-size="11" lengthAdjust="spacingAndGlyphs" textLength="82" x="612.5" y="236.6245">frameDuration</text><text fill="#000000" font-family="sans-serif" font-size="11" lengthAdjust="spacingAndGlyphs" textLength="41" x="612.5" y="249.4292">started</text><text fill="#000000" font-family="sans-serif" font-size="11" lengthAdjust="spacingAndGlyphs" textLength="42" x="612.5" y="262.2339">paused</text><text fill="#000000" font-family="sans-serif" font-size="11" lengthAdjust="spacingAndGlyphs" textLength="89" x="612.5" y="275.0386">prevFrameTime</text><line style="stroke: #A80036; stroke-width: 1.5;" x1="607.5" x2="706.5" y1="281.6328" y2="281.6328"/><text fill="#000000" font-family="sans-serif" font-size="11" lengthAdjust="spacingAndGlyphs" textLength="73" x="612.5" y="295.8433">constructor()</text><text fill="#000000" font-family="sans-serif" font-size="11" lengthAdjust="spacingAndGlyphs" textLength="46" x="612.5" y="308.6479">setFps()</text><text fill="#000000" font-family="sans-serif" font-size="11" lengthAdjust="spacingAndGlyphs" textLength="46" x="612.5" y="321.4526">getFps()</text><text fill="#000000" font-family="sans-serif" font-size="11" lengthAdjust="spacingAndGlyphs" textLength="35" x="612.5" y="334.2573">start()</text><text fill="#000000" font-family="sans-serif" font-size="11" lengthAdjust="spacingAndGlyphs" textLength="43" x="612.5" y="347.062">pause()</text><text fill="#000000" font-family="sans-serif" font-size="11" lengthAdjust="spacingAndGlyphs" textLength="33" x="612.5" y="359.8667">stop()</text><text fill="#000000" font-family="sans-serif" font-size="11" lengthAdjust="spacingAndGlyphs" textLength="63" x="612.5" y="372.6714">isRunning()</text><text fill="#000000" font-family="sans-serif" font-size="11" lengthAdjust="spacingAndGlyphs" textLength="60" x="612.5" y="385.4761">isPaused()</text><text fill="#000000" font-family="sans-serif" font-size="11" lengthAdjust="spacingAndGlyphs" textLength="27" x="612.5" y="398.2808">run()</text><!--MD5=[a2c332e96204304900528bc4ac21de91]
class simulator_js--><rect fill="#8FBC8F" filter="url(#fh3gvbpq4cy6o)" height="53.9375" id="simulator_js" style="stroke: #A80036; stroke-width: 1.5;" width="106" x="604" y="14.5"/><ellipse cx="619" cy="33.4688" fill="#DA70D6" rx="11" ry="11" style="stroke: #A80036; stroke-width: 1.0;"/><path d="M614.7188,27.0781 L617.6406,27.0781 L619.1094,32.5156 L620.5781,27.0781 L623.5156,27.0781 L623.5156,39.4688 L621.4063,39.4688 L621.4063,29.5469 L620.0938,34.9688 L618.1563,34.9688 L616.8281,29.5469 L616.8281,39.4688 L614.7188,39.4688 L614.7188,27.0781 Z "/><text fill="#000000" font-family="sans-serif" font-size="12" font-style="italic" lengthAdjust="spacingAndGlyphs" textLength="60" x="640" y="30.6387">«module»</text><text fill="#000000" font-family="sans-serif" font-size="12" lengthAdjust="spacingAndGlyphs" textLength="74" x="633" y="44.6074">simulator_js</text><line style="stroke: #A80036; stroke-width: 1.5;" x1="605" x2="709" y1="52.4375" y2="52.4375"/><line style="stroke: #A80036; stroke-width: 1.0;" x1="605" x2="709" y1="60.4375" y2="60.4375"/><!--MD5=[7a15ead8c918a802688c8deebc1792fb]
class system_js--><rect fill="#8FBC8F" filter="url(#fh3gvbpq4cy6o)" height="53.9375" id="system_js" style="stroke: #A80036; stroke-width: 1.5;" width="92" x="6" y="251.5"/><ellipse cx="21" cy="270.4688" fill="#DA70D6" rx="11" ry="11" style="stroke: #A80036; stroke-width: 1.0;"/><path d="M16.7188,264.0781 L19.6406,264.0781 L21.1094,269.5156 L22.5781,264.0781 L25.5156,264.0781 L25.5156,276.4688 L23.4063,276.4688 L23.4063,266.5469 L22.0938,271.9688 L20.1563,271.9688 L18.8281,266.5469 L18.8281,276.4688 L16.7188,276.4688 L16.7188,264.0781 Z "/><text fill="#000000" font-family="sans-serif" font-size="12" font-style="italic" lengthAdjust="spacingAndGlyphs" textLength="60" x="35" y="267.6387">«module»</text><text fill="#000000" font-family="sans-serif" font-size="12" lengthAdjust="spacingAndGlyphs" textLength="60" x="35" y="281.6074">system_js</text><line style="stroke: #A80036; stroke-width: 1.5;" x1="7" x2="97" y1="289.4375" y2="289.4375"/><line style="stroke: #A80036; stroke-width: 1.0;" x1="7" x2="97" y1="297.4375" y2="297.4375"/><!--MD5=[1b844c90688aafb95cd8c95626c3b83a]
class Timer--><rect fill="#FEFECE" filter="url(#fh3gvbpq4cy6o)" height="150.4375" id="Timer" style="stroke: #A80036; stroke-width: 1.5;" width="85" x="746.5" y="203.5"/><ellipse cx="770.05" cy="219.5" fill="#ADD1B2" rx="11" ry="11" style="stroke: #A80036; stroke-width: 1.0;"/><path d="M773.0188,225.1406 Q772.4406,225.4375 771.8,225.5781 Q771.1594,225.7344 770.4563,225.7344 Q767.9563,225.7344 766.6281,224.0938 Q765.3156,222.4375 765.3156,219.3125 Q765.3156,216.1875 766.6281,214.5313 Q767.9563,212.875 770.4563,212.875 Q771.1594,212.875 771.8,213.0313 Q772.4563,213.1875 773.0188,213.4844 L773.0188,216.2031 Q772.3938,215.625 771.8,215.3594 Q771.2063,215.0781 770.5813,215.0781 Q769.2375,215.0781 768.55,216.1563 Q767.8625,217.2188 767.8625,219.3125 Q767.8625,221.4063 768.55,222.4844 Q769.2375,223.5469 770.5813,223.5469 Q771.2063,223.5469 771.8,223.2813 Q772.3938,223 773.0188,222.4219 L773.0188,225.1406 Z "/><text fill="#000000" font-family="sans-serif" font-size="12" lengthAdjust="spacingAndGlyphs" textLength="34" x="785.95" y="223.6543">Timer</text><line style="stroke: #A80036; stroke-width: 1.5;" x1="747.5" x2="830.5" y1="235.5" y2="235.5"/><text fill="#000000" font-family="sans-serif" font-size="11" lengthAdjust="spacingAndGlyphs" textLength="25" x="752.5" y="249.7104">time</text><text fill="#000000" font-family="sans-serif" font-size="11" lengthAdjust="spacingAndGlyphs" textLength="31" x="752.5" y="262.5151">entity</text><text fill="#000000" font-family="sans-serif" font-size="11" lengthAdjust="spacingAndGlyphs" textLength="42" x="752.5" y="275.3198">system</text><line style="stroke: #A80036; stroke-width: 1.5;" x1="747.5" x2="830.5" y1="281.9141" y2="281.9141"/><text fill="#000000" font-family="sans-serif" font-size="11" lengthAdjust="spacingAndGlyphs" textLength="73" x="752.5" y="296.1245">constructor()</text><text fill="#000000" font-family="sans-serif" font-size="11" lengthAdjust="spacingAndGlyphs" textLength="38" x="752.5" y="308.9292">reset()</text><text fill="#000000" font-family="sans-serif" font-size="11" lengthAdjust="spacingAndGlyphs" textLength="54" x="752.5" y="321.7339">getTime()</text><text fill="#000000" font-family="sans-serif" font-size="11" lengthAdjust="spacingAndGlyphs" textLength="57" x="752.5" y="334.5386">getEntity()</text><text fill="#000000" font-family="sans-serif" font-size="11" lengthAdjust="spacingAndGlyphs" textLength="69" x="752.5" y="347.3433">getSystem()</text><!--MD5=[52a125f268a22828f224a89b10e1b029]
class timer_js--><rect fill="#8FBC8F" filter="url(#fh3gvbpq4cy6o)" height="66.7422" id="timer_js" style="stroke: #A80036; stroke-width: 1.5;" width="88" x="745" y="8"/><ellipse cx="760" cy="26.9688" fill="#DA70D6" rx="11" ry="11" style="stroke: #A80036; stroke-width: 1.0;"/><path d="M755.7188,20.5781 L758.6406,20.5781 L760.1094,26.0156 L761.5781,20.5781 L764.5156,20.5781 L764.5156,32.9688 L762.4063,32.9688 L762.4063,23.0469 L761.0938,28.4688 L759.1563,28.4688 L757.8281,23.0469 L757.8281,32.9688 L755.7188,32.9688 L755.7188,20.5781 Z "/><text fill="#000000" font-family="sans-serif" font-size="12" font-style="italic" lengthAdjust="spacingAndGlyphs" textLength="60" x="772" y="24.1387">«module»</text><text fill="#000000" font-family="sans-serif" font-size="12" lengthAdjust="spacingAndGlyphs" textLength="48" x="778" y="38.1074">timer_js</text><line style="stroke: #A80036; stroke-width: 1.5;" x1="746" x2="832" y1="45.9375" y2="45.9375"/><line style="stroke: #A80036; stroke-width: 1.0;" x1="746" x2="832" y1="53.9375" y2="53.9375"/><text fill="#000000" font-family="sans-serif" font-size="11" lengthAdjust="spacingAndGlyphs" textLength="62" x="751" y="68.1479">randomId()</text><!--MD5=[3e740bd99a65577a90147a9879ea3f86]
reverse link EventEmitter to Engine--><path d="M265.3139,278.5 C270.2371,278.5 275.1603,278.5 280.0834,278.5 " fill="none" id="EventEmitter&lt;-Engine" style="stroke: #A80036; stroke-width: 1.0;"/><polygon fill="none" points="265.0743,285.4999,245.0742,278.5,265.0742,271.4999,265.0743,285.4999" style="stroke: #A80036; stroke-width: 1.0;"/><!--MD5=[34c8e06c40aff75c7640d7c9ad9dda4d]
link Engine to Array--><path d="M390.3449,391.4458 C390.3449,391.4458 414.8308,492.5838 423.0509,526.5364 " fill="none" id="Engine-Array" style="stroke: #A80036; stroke-width: 1.0;"/><polygon fill="#A80036" points="426.1835,539.4754,427.9533,529.7869,425.0069,534.6158,420.178,531.6694,426.1835,539.4754" style="stroke: #A80036; stroke-width: 1.0;"/><line style="stroke: #A80036; stroke-width: 1.0;" x1="425.0069" x2="423.1245" y1="534.6158" y2="526.8404"/><polygon fill="#A80036" points="387.5211,379.7828,385.0453,386.5556,390.3449,391.4458,392.8207,384.673,387.5211,379.7828" style="stroke: #A80036; stroke-width: 1.0;"/><text fill="#000000" font-family="sans-serif" font-size="13" lengthAdjust="spacingAndGlyphs" textLength="54" x="405" y="448.0669">systems</text><!--MD5=[2ea8db937b350611e7ef07d97c34b548]
link Engine to Entity--><path d="M342.3881,379.7828 C335.9551,411.393 328.9197,445.9637 322.7046,476.5034 " fill="none" id="Engine-&gt;Entity" style="stroke: #A80036; stroke-width: 1.0; stroke-dasharray: 7.0,7.0;"/><polygon fill="#A80036" points="321.6344,481.7619,327.3489,473.7404,322.6315,476.8623,319.5096,472.145,321.6344,481.7619" style="stroke: #A80036; stroke-width: 1.0;"/><text fill="#000000" font-family="sans-serif" font-size="13" lengthAdjust="spacingAndGlyphs" textLength="36" x="332" y="448.0669">entity</text><!--MD5=[012d018c9a4e3a6b777450e859416b6a]
link Engine to System--><path d="M286.2383,379.7828 C258.6225,416.2203 228.0252,456.5917 202.5628,490.188 " fill="none" id="Engine-&gt;System" style="stroke: #A80036; stroke-width: 1.0; stroke-dasharray: 7.0,7.0;"/><polygon fill="#A80036" points="199.4836,494.2508,208.1077,489.4942,202.5037,490.266,201.732,484.662,199.4836,494.2508" style="stroke: #A80036; stroke-width: 1.0;"/><text fill="#000000" font-family="sans-serif" font-size="13" lengthAdjust="spacingAndGlyphs" textLength="47" x="244" y="448.0669">system</text><!--MD5=[a06a158d248e4365762570d298d5493e]
link engine_js to Engine--><path d="M363,68.6869 C363,95.3751 363,137.7425 363,177.4402 " fill="none" id="engine_js-Engine" style="stroke: #A80036; stroke-width: 1.0; stroke-dasharray: 7.0,7.0;"/><text fill="#000000" font-family="sans-serif" font-size="13" lengthAdjust="spacingAndGlyphs" textLength="54" x="364" y="118.0669">contains</text><polygon fill="#000000" points="386.5,127.1328,389.5,133.1328,392.5,127.1328,386.5,127.1328" style="stroke: #000000; stroke-width: 1.0;"/><!--MD5=[a20aadd53f7642853f33823e2644bbde]
reverse link EventEmitter to Entity--><path d="M188.5378,322.6534 C189.6741,358.8347 194.8385,410.6289 213,452 C220.8685,469.9241 232.483,487.2768 244.8301,502.7422 " fill="none" id="EventEmitter&lt;-Entity" style="stroke: #A80036; stroke-width: 1.0;"/><polygon fill="none" points="181.5381,322.712,188.2694,302.6199,195.5368,322.5243,181.5381,322.712" style="stroke: #A80036; stroke-width: 1.0;"/><!--MD5=[30d57555ec8095d798522122c55b2524]
link entity_js to Entity--><path d="M525.0147,305.809 C520.8303,343.622 507.8871,411.7986 468,452 C439.4881,480.7365 415.9778,459.9948 382,482 C376.2816,485.7035 370.6875,489.9177 365.2906,494.4337 " fill="none" id="entity_js-Entity" style="stroke: #A80036; stroke-width: 1.0; stroke-dasharray: 7.0,7.0;"/><text fill="#000000" font-family="sans-serif" font-size="13" lengthAdjust="spacingAndGlyphs" textLength="54" x="482" y="448.0669">contains</text><polygon fill="#000000" points="504.5,457.1328,507.5,463.1328,510.5,457.1328,504.5,457.1328" style="stroke: #000000; stroke-width: 1.0;"/><!--MD5=[108e05c24a9e90350cf9c9217b7720e4]
link simulator_js to Simulator--><path d="M657,68.6869 C657,89.6606 657,120.3177 657,151.7526 " fill="none" id="simulator_js-Simulator" style="stroke: #A80036; stroke-width: 1.0; stroke-dasharray: 7.0,7.0;"/><text fill="#000000" font-family="sans-serif" font-size="13" lengthAdjust="spacingAndGlyphs" textLength="54" x="658" y="118.0669">contains</text><polygon fill="#000000" points="680.5,127.1328,683.5,133.1328,686.5,127.1328,680.5,127.1328" style="stroke: #000000; stroke-width: 1.0;"/><!--MD5=[5cae80cbf082acdca3fef91e36255f1d]
reverse link EventEmitter to System--><path d="M182.4844,322.7131 C175.7211,368.607 165.0493,441.0226 157.1737,494.464 " fill="none" id="EventEmitter&lt;-System" style="stroke: #A80036; stroke-width: 1.0;"/><polygon fill="none" points="175.5779,321.5647,185.4191,302.7989,189.4283,323.6058,175.5779,321.5647" style="stroke: #A80036; stroke-width: 1.0;"/><!--MD5=[0f44944494b48446e2a28449f390f8f5]
link system_js to System--><path d="M55.2127,305.5971 C59.8675,340.297 69.969,401.9274 88,452 C93.0827,466.1147 99.6696,480.659 106.5919,494.3924 " fill="none" id="system_js-System" style="stroke: #A80036; stroke-width: 1.0; stroke-dasharray: 7.0,7.0;"/><text fill="#000000" font-family="sans-serif" font-size="13" lengthAdjust="spacingAndGlyphs" textLength="54" x="89" y="448.0669">contains</text><polygon fill="#000000" points="111.5,457.1328,114.5,463.1328,117.5,457.1328,111.5,457.1328" style="stroke: #000000; stroke-width: 1.0;"/><!--MD5=[3e19bbf339fa361169fbbf07891c0a8c]
link timer_js to Timer--><path d="M789,75.2046 C789,108.4316 789,160.3369 789,203.382 " fill="none" id="timer_js-Timer" style="stroke: #A80036; stroke-width: 1.0; stroke-dasharray: 7.0,7.0;"/><text fill="#000000" font-family="sans-serif" font-size="13" lengthAdjust="spacingAndGlyphs" textLength="54" x="790" y="118.0669">contains</text><polygon fill="#000000" points="812.5,127.1328,815.5,133.1328,818.5,127.1328,812.5,127.1328" style="stroke: #000000; stroke-width: 1.0;"/><text fill="#888888" font-family="sans-serif" font-size="10" lengthAdjust="spacingAndGlyphs" textLength="188" x="344" y="664.2822">Generated by GitUml www.gituml.com</text><!--MD5=[71b55b4c69d66ac186bb7f84c24e0e13]
@startuml
class Engine {
    entities
    systems
    systemVsEntities
    constructor()
    entity()
    getEntity()
    removeEntity()
    system()
    getSystem()
    removeSystem()
    updateSystemsVsEntities()
    tick()
}

EventEmitter <|- Engine
Engine *- -> Array : systems
Engine ..> Entity : entity
Engine ..> System : system
class engine_js <<module>> << (M,orchid) >> #DarkSeaGreen {
    - - -
}

engine_js .. Engine : contains >
class Entity {
    name
    components
    constructor()
    getName()
    hasComponent()
    setComponent()
    getComponent()
    deleteComponent()
    destroy()
}

EventEmitter <|- Entity
class entity_js <<module>> << (M,orchid) >> #DarkSeaGreen {
    - - -
}

entity_js .. Entity : contains >
class jecs_js <<module>> << (M,orchid) >> #DarkSeaGreen {
    - - -
}
class Simulator {
    engine
    time
    fps
    frameDuration
    started
    paused
    prevFrameTime
    constructor()
    setFps()
    getFps()
    start()
    pause()
    stop()
    isRunning()
    isPaused()
    run()
}

class simulator_js <<module>> << (M,orchid) >> #DarkSeaGreen {
    - - -
}

simulator_js .. Simulator : contains >
class System {
    name
    components
    handler
    constructor()
    isCompatibleEntity()
    getName()
    destroy()
}

EventEmitter <|- System
class system_js <<module>> << (M,orchid) >> #DarkSeaGreen {
    - - -
}

system_js .. System : contains >
class Timer {
    time
    entity
    system
    constructor()
    reset()
    getTime()
    getEntity()
    getSystem()
}

class timer_js <<module>> << (M,orchid) >> #DarkSeaGreen {
    - - -
    randomId()
}

timer_js .. Timer : contains >






center footer Generated by GitUml www.gituml.com
@enduml

PlantUML version 1.2020.08(Sun Apr 26 14:08:22 UTC 2020)
(GPL source distribution)
Java Runtime: OpenJDK Runtime Environment
JVM: OpenJDK 64-Bit Server VM
Java Version: 1.8.0_252-heroku-b09
Operating System: Linux
Default Encoding: UTF-8
Language: en
Country: US
--></g></svg>